<svg width="18" height="16" viewBox="0 0 18 16" fill="none" xmlns="http://www.w3.org/2000/svg">
<path d="M17.8913 7.54375C16.1966 4.23719 12.8416 2 9 2C5.15844 2 1.8025 4.23875 0.10875 7.54406C0.0372632 7.68547 1.71661e-05 7.8417 1.71661e-05 8.00016C1.71661e-05 8.15861 0.0372632 8.31484 0.10875 8.45625C1.80344 11.7628 5.15844 14 9 14C12.8416 14 16.1975 11.7612 17.8913 8.45594C17.9627 8.31453 18 8.1583 18 7.99984C18 7.84139 17.9627 7.68516 17.8913 7.54375ZM9 12.5C8.10998 12.5 7.23995 12.2361 6.49993 11.7416C5.75991 11.2471 5.18314 10.5443 4.84254 9.72208C4.50195 8.89981 4.41283 7.99501 4.58647 7.12209C4.7601 6.24918 5.18868 5.44736 5.81802 4.81802C6.44736 4.18868 7.24918 3.7601 8.12209 3.58647C8.99501 3.41283 9.89981 3.50195 10.7221 3.84254C11.5443 4.18314 12.2471 4.75991 12.7416 5.49993C13.2361 6.23995 13.5 7.10998 13.5 8C13.5003 8.59103 13.3841 9.17632 13.158 9.72242C12.932 10.2685 12.6005 10.7647 12.1826 11.1826C11.7647 11.6005 11.2685 11.932 10.7224 12.158C10.1763 12.3841 9.59103 12.5003 9 12.5ZM9 5C8.73223 5.00374 8.46618 5.04358 8.20906 5.11844C8.42101 5.40646 8.52271 5.7609 8.49574 6.11748C8.46876 6.47406 8.31489 6.80917 8.06203 7.06203C7.80917 7.31489 7.47406 7.46876 7.11748 7.49574C6.7609 7.52271 6.40646 7.42101 6.11844 7.20906C5.95443 7.81331 5.98403 8.45377 6.20309 9.04031C6.42214 9.62685 6.81962 10.1299 7.33957 10.4787C7.85951 10.8275 8.47575 11.0045 9.10155 10.9847C9.72735 10.965 10.3312 10.7495 10.8281 10.3685C11.325 9.9876 11.6899 9.46044 11.8715 8.86125C12.0531 8.26205 12.0422 7.62099 11.8404 7.0283C11.6386 6.43561 11.256 5.92114 10.7464 5.55728C10.2369 5.19343 9.62611 4.99853 9 5Z" fill="black"/>
</svg>
