<svg width="28" height="28" viewBox="0 0 28 28" fill="none" xmlns="http://www.w3.org/2000/svg">
<path d="M23.1962 5.69484L22.3376 4.83624C22.0949 4.59358 21.647 4.63093 21.367 4.96686L18.3801 7.93482C17.036 7.35622 15.5615 7.07622 14.0121 7.07622C9.40126 7.09482 5.40685 9.78278 3.48405 13.647C3.37202 13.8897 3.37202 14.1883 3.48405 14.3936C4.37997 16.2229 5.72405 17.735 7.40406 18.8736L4.95873 21.3562C4.67873 21.6362 4.64139 22.0842 4.82811 22.3269L5.68671 23.1855C5.92937 23.4281 6.37735 23.3908 6.65735 23.0548L23.0466 6.66564C23.4013 6.38579 23.4386 5.93784 23.196 5.69516L23.1962 5.69484ZM15.0014 11.332C14.684 11.2574 14.3481 11.1641 14.0307 11.1641C12.444 11.1641 11.1748 12.4334 11.1748 14.02C11.1748 14.3373 11.2495 14.6733 11.3428 14.9906L10.092 16.2227C9.71871 15.5694 9.51339 14.8413 9.51339 14.02C9.51339 11.5374 11.5108 9.54003 13.9934 9.54003C14.8148 9.54003 15.5428 9.74534 16.196 10.1186L15.0014 11.332Z" fill="#666666" fill-opacity="0.8"/>
<path d="M24.5402 13.647C23.8869 12.3402 23.0281 11.1643 21.9643 10.2123L18.4922 13.647V14.0202C18.4922 16.5029 16.4949 18.5002 14.0122 18.5002H13.6389L11.4363 20.7029C12.2577 20.8708 13.1163 20.9829 13.9563 20.9829C18.5671 20.9829 22.5615 18.2949 24.4843 14.4121C24.6523 14.1507 24.6523 13.8894 24.5402 13.6468L24.5402 13.647Z" fill="#666666" fill-opacity="0.8"/>
</svg>
